<?xml version="1.0" encoding="utf-8"?>
<!-- Generator: Adobe Illustrator 19.1.1, SVG Export Plug-In . SVG Version: 6.00 Build 0)  -->
<svg version="1.1" id="Calque_1" xmlns="http://www.w3.org/2000/svg" xmlns:xlink="http://www.w3.org/1999/xlink" x="0px" y="0px"
	 viewBox="0 0 202.5 84.5" style="enable-background:new 0 0 202.5 84.5;" xml:space="preserve">
<style type="text/css">
	.st0{fill:#999999;}
</style>
<g>
	<g>
		<path class="st0" d="M166.6,62.9h-0.1v1.9h0.1c0-0.1,0.1-0.2,0.2-0.2c0.1,0,0.1-0.1,0.2-0.1c0.1,0,0.2,0,0.3,0.1
			c0.2,0.1,0.4,0.1,0.5,0.2c0.1,0,0.3,0,0.4,0c0.5,0,0.9-0.2,1.2-0.5c0.3-0.3,0.5-0.7,0.5-1.1c0-0.3-0.1-0.6-0.3-0.9
			c-0.2-0.3-0.6-0.5-1.2-0.8c-0.4-0.2-0.7-0.4-0.8-0.4c-0.2-0.1-0.3-0.2-0.3-0.3c-0.1-0.1-0.1-0.2-0.1-0.3c0-0.2,0.1-0.3,0.2-0.5
			c0.1-0.1,0.3-0.2,0.6-0.2c0.3,0,0.6,0.1,0.9,0.4c0.3,0.3,0.5,0.6,0.5,1h0.2l0-1.7h-0.1c0,0.2-0.1,0.2-0.1,0.3c0,0-0.1,0.1-0.2,0.1
			c-0.1,0-0.2,0-0.3-0.1c-0.2-0.1-0.3-0.1-0.4-0.2c-0.2,0-0.3-0.1-0.5-0.1c-0.4,0-0.8,0.1-1.1,0.4c-0.3,0.3-0.4,0.6-0.4,1
			c0,0.2,0.1,0.4,0.2,0.6c0.1,0.2,0.3,0.4,0.5,0.5c0.2,0.2,0.5,0.4,1,0.6c0.3,0.2,0.6,0.3,0.7,0.4c0.1,0.1,0.2,0.2,0.3,0.3
			c0.1,0.1,0.1,0.2,0.1,0.3c0,0.2-0.1,0.4-0.2,0.5c-0.2,0.2-0.4,0.2-0.7,0.2c-0.4,0-0.7-0.1-1-0.4C166.9,63.9,166.7,63.5,166.6,62.9
			 M165.4,59.7h-4.2v0.1h0.2c0.2,0,0.3,0,0.4,0.1c0.1,0,0.1,0.1,0.1,0.2c0,0.1,0,0.2,0,0.4v3.3c0,0.3,0,0.4,0,0.5
			c0,0.1-0.1,0.1-0.1,0.2c-0.1,0.1-0.2,0.1-0.4,0.1h-0.2v0.1h4.3l0.2-1.6h-0.1c-0.1,0.4-0.3,0.8-0.6,1c-0.3,0.2-0.7,0.3-1.1,0.3
			h-0.3c-0.1,0-0.2,0-0.3-0.1c-0.1,0-0.1-0.1-0.1-0.2c0-0.1,0-0.2,0-0.5v-1.4c0.2,0,0.4,0,0.5,0.1c0.1,0.1,0.2,0.2,0.3,0.4
			c0.1,0.2,0.2,0.4,0.2,0.7h0.1v-2.6h-0.1c0,0.4-0.1,0.7-0.3,0.9c-0.1,0.2-0.4,0.3-0.7,0.3h-0.1v-2h0.5c0.4,0,0.6,0,0.8,0.1
			c0.2,0.1,0.4,0.2,0.5,0.3c0.1,0.2,0.2,0.4,0.3,0.8h0.1V59.7z M158,60c0.4,0,0.7,0.1,0.9,0.3c0.2,0.2,0.3,0.5,0.3,0.8
			c0,0.3,0,0.5-0.1,0.6c-0.1,0.2-0.2,0.3-0.4,0.3c-0.2,0.1-0.4,0.1-0.8,0.1h-0.2V60H158z M158,59.7h-2.3v0.1c0.2,0,0.4,0,0.5,0.1
			c0.1,0,0.1,0.1,0.2,0.2c0,0.1,0,0.2,0,0.5v3.3c0,0.3,0,0.4,0,0.5c0,0.1-0.1,0.1-0.2,0.2c-0.1,0-0.2,0.1-0.5,0.1v0.1h2.6v-0.1
			c-0.2,0-0.4,0-0.5-0.1c-0.1,0-0.1-0.1-0.2-0.2c0-0.1,0-0.2,0-0.5v-1.4h0.3l1.6,2.3h1.6v-0.1c-0.1,0-0.3-0.1-0.4-0.1
			c-0.1-0.1-0.2-0.2-0.3-0.4l-1.2-1.7c0.3-0.1,0.5-0.2,0.7-0.3c0.3-0.2,0.4-0.5,0.4-0.9c0-0.3-0.1-0.6-0.3-0.8
			c-0.2-0.2-0.4-0.4-0.7-0.5C159.1,59.7,158.7,59.7,158,59.7 M154.9,59.7h-4.2v0.1h0.2c0.2,0,0.3,0,0.4,0.1c0.1,0,0.1,0.1,0.1,0.2
			c0,0.1,0,0.2,0,0.4v3.3c0,0.3,0,0.4,0,0.5c0,0.1-0.1,0.1-0.1,0.2c-0.1,0.1-0.2,0.1-0.4,0.1h-0.2v0.1h4.3l0.2-1.6h-0.1
			c-0.1,0.4-0.3,0.8-0.6,1c-0.3,0.2-0.7,0.3-1.1,0.3h-0.3c-0.1,0-0.2,0-0.3-0.1c-0.1,0-0.1-0.1-0.1-0.2c0-0.1,0-0.2,0-0.5v-1.4
			c0.2,0,0.4,0,0.5,0.1c0.1,0.1,0.2,0.2,0.3,0.4c0.1,0.2,0.2,0.4,0.2,0.7h0.1v-2.6h-0.1c0,0.4-0.1,0.7-0.3,0.9
			c-0.1,0.2-0.4,0.3-0.7,0.3h-0.1v-2h0.5c0.4,0,0.6,0,0.8,0.1c0.2,0.1,0.4,0.2,0.5,0.3c0.1,0.2,0.2,0.4,0.3,0.8h0.1V59.7z M151.9,58
			l1.2,1.3h0.3L153,58H151.9z M150.4,59.7h-2.6v0.1h0.2c0.1,0,0.3,0,0.3,0.1c0.1,0,0.1,0.1,0.2,0.2c0,0.1,0,0.2,0,0.5v3.3
			c0,0.3,0,0.4,0,0.5c0,0.1-0.1,0.1-0.1,0.2c-0.1,0.1-0.2,0.1-0.4,0.1h-0.2v0.1h2.6v-0.1h-0.2c-0.1,0-0.3,0-0.3-0.1
			c-0.1,0-0.1-0.1-0.2-0.2c0-0.1,0-0.2,0-0.5v-3.3c0-0.3,0-0.4,0-0.5c0-0.1,0.1-0.1,0.2-0.2c0.1-0.1,0.2-0.1,0.4-0.1h0.2V59.7z
			 M142.4,59.7h-2.6v0.1h0.2c0.1,0,0.3,0,0.3,0.1c0.1,0,0.1,0.1,0.2,0.2c0,0.1,0,0.2,0,0.5v3.3c0,0.3,0,0.4,0,0.5
			c0,0.1-0.1,0.1-0.1,0.2c-0.1,0.1-0.2,0.1-0.4,0.1h-0.2v0.1h2.6v-0.1h-0.2c-0.1,0-0.3,0-0.3-0.1c-0.1,0-0.1-0.1-0.2-0.2
			c0-0.1,0-0.2,0-0.5v-3.3c0-0.3,0-0.4,0-0.5c0-0.1,0.1-0.1,0.2-0.2c0.1-0.1,0.2-0.1,0.4-0.1h0.2V59.7z M136.6,60
			c0.4,0,0.6,0,0.8,0.1c0.2,0.1,0.3,0.2,0.4,0.3c0.1,0.1,0.1,0.3,0.1,0.5c0,0.2,0,0.4-0.1,0.5c-0.1,0.1-0.2,0.3-0.4,0.3
			c-0.2,0.1-0.4,0.1-0.8,0.1V60z M136.5,64l0-0.2v-1.6c0.4,0,0.7,0,0.9,0.1c0.2,0.1,0.3,0.2,0.4,0.4c0.1,0.2,0.2,0.4,0.2,0.6
			c0,0.2,0,0.4-0.1,0.6c-0.1,0.2-0.2,0.3-0.4,0.4c-0.2,0.1-0.3,0.1-0.5,0.1c-0.1,0-0.2,0-0.3-0.1C136.6,64.3,136.5,64.2,136.5,64
			 M137.1,59.7h-2.4v0.1c0.2,0,0.4,0,0.5,0.1c0.1,0,0.1,0.1,0.2,0.2c0,0.1,0.1,0.2,0.1,0.5v3.3c0,0.3,0,0.4-0.1,0.5
			c0,0.1-0.1,0.1-0.2,0.2c-0.1,0-0.2,0.1-0.5,0.1v0.1h2.5c0.7,0,1.3-0.1,1.6-0.4c0.3-0.2,0.5-0.6,0.5-0.9c0-0.4-0.1-0.6-0.4-0.9
			c-0.2-0.2-0.5-0.3-1-0.4c0.4-0.1,0.8-0.3,0.9-0.4c0.2-0.2,0.3-0.4,0.3-0.6c0-0.2-0.1-0.4-0.2-0.6c-0.1-0.2-0.3-0.4-0.6-0.5
			C138.1,59.7,137.7,59.7,137.1,59.7 M130.3,62.2c0-0.7,0.1-1.3,0.3-1.7c0.2-0.5,0.6-0.7,1-0.7c0.2,0,0.5,0.1,0.7,0.2
			c0.2,0.1,0.3,0.4,0.5,0.7c0.1,0.3,0.2,0.8,0.2,1.5c0,0.6-0.1,1-0.2,1.4c-0.1,0.3-0.3,0.6-0.5,0.8c-0.2,0.1-0.4,0.2-0.6,0.2
			c-0.4,0-0.7-0.1-0.9-0.4C130.4,63.7,130.3,63.1,130.3,62.2 M129.7,60.3c-0.5,0.5-0.8,1.1-0.8,1.9c0,0.7,0.2,1.2,0.6,1.7
			c0.5,0.6,1.2,0.9,2.1,0.9c0.9,0,1.6-0.3,2.1-1c0.4-0.5,0.6-1,0.6-1.7c0-0.7-0.2-1.4-0.7-1.9c-0.5-0.5-1.2-0.7-1.9-0.7
			C130.8,59.6,130.2,59.8,129.7,60.3 M114.2,59.7h-2.6v0.1h0.2c0.1,0,0.3,0,0.3,0.1c0.1,0,0.1,0.1,0.2,0.2c0,0.1,0,0.2,0,0.5v3.3
			c0,0.3,0,0.4,0,0.5c0,0.1-0.1,0.1-0.1,0.2c-0.1,0.1-0.2,0.1-0.4,0.1h-0.2v0.1h2.6v-0.1H114c-0.1,0-0.3,0-0.3-0.1
			c-0.1,0-0.1-0.1-0.2-0.2c0-0.1,0-0.2,0-0.5v-3.3c0-0.3,0-0.4,0-0.5c0-0.1,0.1-0.1,0.2-0.2c0.1-0.1,0.2-0.1,0.4-0.1h0.2V59.7z
			 M105.8,62.9h-0.1v1.9h0.1c0-0.1,0.1-0.2,0.2-0.2c0.1,0,0.1-0.1,0.2-0.1c0.1,0,0.2,0,0.3,0.1c0.2,0.1,0.4,0.1,0.5,0.2
			c0.1,0,0.3,0,0.4,0c0.5,0,0.9-0.2,1.2-0.5c0.3-0.3,0.5-0.7,0.5-1.1c0-0.3-0.1-0.6-0.3-0.9c-0.2-0.3-0.6-0.5-1.2-0.8
			c-0.4-0.2-0.7-0.4-0.8-0.4c-0.2-0.1-0.3-0.2-0.3-0.3c-0.1-0.1-0.1-0.2-0.1-0.3c0-0.2,0.1-0.3,0.2-0.5c0.1-0.1,0.3-0.2,0.6-0.2
			c0.3,0,0.6,0.1,0.9,0.4c0.3,0.3,0.5,0.6,0.5,1h0.2l0-1.7h-0.1c0,0.2-0.1,0.2-0.1,0.3c0,0-0.1,0.1-0.2,0.1c-0.1,0-0.2,0-0.3-0.1
			c-0.2-0.1-0.3-0.1-0.4-0.2c-0.2,0-0.3-0.1-0.5-0.1c-0.4,0-0.8,0.1-1.1,0.4c-0.3,0.3-0.4,0.6-0.4,1c0,0.2,0.1,0.4,0.2,0.6
			c0.1,0.2,0.3,0.4,0.5,0.5c0.2,0.2,0.5,0.4,1,0.6c0.3,0.2,0.6,0.3,0.7,0.4c0.1,0.1,0.2,0.2,0.3,0.3c0.1,0.1,0.1,0.2,0.1,0.3
			c0,0.2-0.1,0.4-0.2,0.5c-0.2,0.2-0.4,0.2-0.7,0.2c-0.4,0-0.7-0.1-1-0.4C106.1,63.9,105.9,63.5,105.8,62.9 M102.2,60
			c0.4,0,0.7,0.1,0.9,0.3c0.2,0.2,0.3,0.5,0.3,0.8c0,0.3,0,0.5-0.1,0.6c-0.1,0.2-0.2,0.3-0.4,0.3c-0.2,0.1-0.4,0.1-0.8,0.1h-0.2V60
			H102.2z M102.3,59.7H100v0.1c0.2,0,0.4,0,0.5,0.1c0.1,0,0.1,0.1,0.2,0.2c0,0.1,0,0.2,0,0.5v3.3c0,0.3,0,0.4,0,0.5
			c0,0.1-0.1,0.1-0.2,0.2c-0.1,0-0.2,0.1-0.5,0.1v0.1h2.6v-0.1c-0.2,0-0.4,0-0.5-0.1c-0.1,0-0.1-0.1-0.2-0.2c0-0.1,0-0.2,0-0.5v-1.4
			h0.3l1.6,2.3h1.6v-0.1c-0.1,0-0.3-0.1-0.4-0.1c-0.1-0.1-0.2-0.2-0.3-0.4l-1.2-1.7c0.3-0.1,0.5-0.2,0.7-0.3
			c0.3-0.2,0.4-0.5,0.4-0.9c0-0.3-0.1-0.6-0.3-0.8c-0.2-0.2-0.4-0.4-0.7-0.5C103.3,59.7,102.9,59.7,102.3,59.7 M97.1,59.7h-2.6v0.1
			c0.2,0,0.4,0,0.4,0.1c0.1,0,0.1,0.1,0.2,0.2c0,0.1,0,0.2,0,0.5v2.5c0,0.4,0.1,0.7,0.2,1c0.1,0.2,0.4,0.4,0.7,0.6
			c0.2,0.1,0.6,0.2,1,0.2c0.5,0,0.9-0.1,1.2-0.3c0.3-0.2,0.5-0.5,0.6-0.7c0.1-0.3,0.1-0.7,0.1-1.3v-1.9c0-0.2,0-0.3,0-0.4
			c0-0.1,0.1-0.2,0.2-0.3c0.1-0.1,0.2-0.1,0.4-0.1h0.1v-0.1H98v0.1c0.2,0,0.4,0,0.5,0.1c0.1,0,0.1,0.1,0.2,0.2
			c0,0.1,0.1,0.3,0.1,0.5v2c0,0.5,0,0.9-0.1,1.1c-0.1,0.2-0.2,0.4-0.4,0.5s-0.4,0.2-0.7,0.2c-0.2,0-0.4,0-0.6-0.1
			c-0.2-0.1-0.3-0.2-0.3-0.4c-0.1-0.1-0.1-0.4-0.1-0.9v-2.5c0-0.3,0-0.5,0-0.5c0-0.1,0.1-0.1,0.2-0.2c0.1,0,0.2-0.1,0.4-0.1h0.1
			V59.7z M93.6,59.7h-4.2v0.1h0.2c0.2,0,0.3,0,0.4,0.1c0.1,0,0.1,0.1,0.1,0.2c0,0.1,0,0.2,0,0.4v3.3c0,0.3,0,0.4,0,0.5
			c0,0.1-0.1,0.1-0.1,0.2c-0.1,0.1-0.2,0.1-0.4,0.1h-0.2v0.1h4.3l0.2-1.6h-0.1c-0.1,0.4-0.3,0.8-0.6,1c-0.3,0.2-0.7,0.3-1.1,0.3
			h-0.3c-0.1,0-0.2,0-0.3-0.1c-0.1,0-0.1-0.1-0.1-0.2c0-0.1,0-0.2,0-0.5v-1.4c0.2,0,0.4,0,0.5,0.1c0.1,0.1,0.2,0.2,0.3,0.4
			c0.1,0.2,0.2,0.4,0.2,0.7h0.1v-2.6h-0.1c0,0.4-0.1,0.7-0.3,0.9C92,61.9,91.8,62,91.5,62h-0.1v-2h0.5c0.4,0,0.6,0,0.8,0.1
			c0.2,0.1,0.4,0.2,0.6,0.3c0.1,0.2,0.2,0.4,0.3,0.8h0.1V59.7z M87.1,59.7h-2.7v0.1h0.2c0.1,0,0.3,0,0.3,0.1c0.1,0,0.1,0.1,0.2,0.2
			c0,0.1,0,0.2,0,0.5v3.3c0,0.3,0,0.4,0,0.5c0,0.1-0.1,0.1-0.1,0.2c-0.1,0.1-0.2,0.1-0.4,0.1h-0.2v0.1h4.5l0.2-1.8h-0.2
			c-0.1,0.4-0.2,0.7-0.4,0.9c-0.1,0.2-0.3,0.3-0.5,0.4c-0.2,0.1-0.4,0.1-0.7,0.1H87c-0.2,0-0.4,0-0.4,0c-0.1,0-0.1-0.1-0.2-0.2
			c0-0.1,0-0.2,0-0.5v-3.2c0-0.3,0-0.4,0-0.5c0-0.1,0.1-0.1,0.2-0.2c0.1-0.1,0.2-0.1,0.4-0.1h0.2V59.7z M80.3,63l0.8-1.7l0.7,1.7
			H80.3z M79.3,64.3c-0.1,0.1-0.3,0.2-0.4,0.2v0.1h1.7v-0.1c-0.3,0-0.4-0.1-0.5-0.1c-0.1-0.1-0.2-0.2-0.2-0.3c0-0.1,0-0.2,0.1-0.4
			l0.2-0.5h1.8l0.3,0.6c0.1,0.2,0.1,0.3,0.1,0.3c0,0,0,0.1,0,0.1c0,0.1,0,0.1-0.1,0.2c-0.1,0.1-0.2,0.1-0.4,0.1h-0.1v0.1h2.4v-0.1
			c-0.2,0-0.3-0.1-0.4-0.1c-0.1-0.1-0.3-0.3-0.4-0.7l-1.8-4.1h-0.1l-1.8,4C79.5,64,79.4,64.2,79.3,64.3 M76.7,59.7h-2.4v0.1
			c0.2,0,0.3,0.1,0.4,0.2c0.1,0.1,0.2,0.4,0.4,0.8l1.7,4H77l1.7-3.8c0.2-0.5,0.4-0.7,0.5-0.9c0.1-0.2,0.3-0.3,0.5-0.3v-0.1H78v0.1
			c0.2,0,0.3,0,0.4,0.1c0.1,0,0.1,0.1,0.2,0.1c0,0.1,0.1,0.1,0.1,0.2c0,0.1,0,0.1,0,0.2c0,0.1-0.1,0.3-0.2,0.5l-1,2.2l-1.1-2.5
			c-0.1-0.3-0.2-0.4-0.2-0.5c0-0.1,0-0.1,0-0.2c0-0.1,0-0.1,0.1-0.2c0.1-0.1,0.2-0.1,0.4-0.1h0.1V59.7z M68.8,62.9h-0.1v1.9h0.1
			c0-0.1,0.1-0.2,0.2-0.2c0.1,0,0.1-0.1,0.2-0.1c0.1,0,0.2,0,0.3,0.1c0.2,0.1,0.4,0.1,0.5,0.2c0.1,0,0.3,0,0.4,0
			c0.5,0,0.9-0.2,1.2-0.5c0.3-0.3,0.5-0.7,0.5-1.1c0-0.3-0.1-0.6-0.3-0.9c-0.2-0.3-0.6-0.5-1.2-0.8c-0.4-0.2-0.7-0.4-0.8-0.4
			c-0.2-0.1-0.3-0.2-0.3-0.3c-0.1-0.1-0.1-0.2-0.1-0.3c0-0.2,0.1-0.3,0.2-0.5c0.1-0.1,0.3-0.2,0.6-0.2c0.3,0,0.6,0.1,0.9,0.4
			c0.3,0.3,0.5,0.6,0.5,1h0.2l0-1.7h-0.1c0,0.2-0.1,0.2-0.1,0.3c0,0-0.1,0.1-0.2,0.1c-0.1,0-0.2,0-0.3-0.1c-0.2-0.1-0.3-0.1-0.4-0.2
			c-0.2,0-0.3-0.1-0.5-0.1c-0.4,0-0.8,0.1-1.1,0.4c-0.3,0.3-0.4,0.6-0.4,1c0,0.2,0.1,0.4,0.2,0.6c0.1,0.2,0.3,0.4,0.5,0.5
			c0.2,0.2,0.5,0.4,1,0.6c0.3,0.2,0.6,0.3,0.7,0.4c0.1,0.1,0.2,0.2,0.3,0.3c0.1,0.1,0.1,0.2,0.1,0.3c0,0.2-0.1,0.4-0.2,0.5
			c-0.2,0.2-0.4,0.2-0.7,0.2c-0.4,0-0.7-0.1-1-0.4C69.2,63.9,69,63.5,68.8,62.9 M64.1,62.2c0-0.7,0.1-1.3,0.3-1.7
			c0.2-0.5,0.6-0.7,1-0.7c0.2,0,0.5,0.1,0.7,0.2c0.2,0.1,0.3,0.4,0.5,0.7c0.1,0.3,0.2,0.8,0.2,1.5c0,0.6-0.1,1-0.2,1.4
			c-0.1,0.3-0.3,0.6-0.5,0.8c-0.2,0.1-0.4,0.2-0.6,0.2c-0.4,0-0.7-0.1-0.9-0.4C64.2,63.7,64.1,63.1,64.1,62.2 M63.5,60.3
			c-0.5,0.5-0.8,1.1-0.8,1.9c0,0.7,0.2,1.2,0.6,1.7c0.5,0.6,1.2,0.9,2.1,0.9c0.9,0,1.6-0.3,2.1-1c0.4-0.5,0.6-1,0.6-1.7
			c0-0.7-0.3-1.4-0.7-1.9c-0.5-0.5-1.1-0.7-1.9-0.7C64.6,59.6,64,59.8,63.5,60.3 M59.6,59.7h-2.4v0.1c0.2,0,0.3,0.1,0.4,0.2
			c0.1,0.1,0.2,0.4,0.4,0.8l1.7,4h0.1l1.7-3.8c0.2-0.5,0.4-0.7,0.5-0.9c0.1-0.2,0.3-0.3,0.5-0.3v-0.1h-1.6v0.1c0.2,0,0.3,0,0.4,0.1
			c0.1,0,0.1,0.1,0.2,0.1c0,0.1,0.1,0.1,0.1,0.2c0,0.1,0,0.1,0,0.2c0,0.1-0.1,0.3-0.2,0.5l-1,2.2l-1.1-2.5c-0.1-0.3-0.2-0.4-0.2-0.5
			c0-0.1,0-0.1,0-0.2c0-0.1,0-0.1,0.1-0.2c0.1-0.1,0.2-0.1,0.4-0.1h0.1V59.7z M51.4,63l0.8-1.7l0.7,1.7H51.4z M50.4,64.3
			c-0.1,0.1-0.3,0.2-0.4,0.2v0.1h1.7v-0.1c-0.3,0-0.4-0.1-0.5-0.1c-0.1-0.1-0.2-0.2-0.2-0.3c0-0.1,0-0.2,0.1-0.4l0.2-0.5H53l0.3,0.6
			c0.1,0.2,0.1,0.3,0.1,0.3c0,0,0,0.1,0,0.1c0,0.1,0,0.1-0.1,0.2c-0.1,0.1-0.2,0.1-0.4,0.1h-0.1v0.1h2.4v-0.1
			c-0.2,0-0.3-0.1-0.4-0.1c-0.1-0.1-0.3-0.3-0.4-0.7l-1.8-4.1h-0.1l-1.8,4C50.6,64,50.5,64.2,50.4,64.3 M51.5,58l1.2,1.3H53L52.6,58
			H51.5z M38.6,62.9h-0.1v1.9h0.1c0-0.1,0.1-0.2,0.2-0.2c0.1,0,0.1-0.1,0.2-0.1c0.1,0,0.2,0,0.3,0.1c0.2,0.1,0.4,0.1,0.5,0.2
			c0.1,0,0.3,0,0.4,0c0.5,0,0.9-0.2,1.2-0.5c0.3-0.3,0.5-0.7,0.5-1.1c0-0.3-0.1-0.6-0.3-0.9c-0.2-0.3-0.6-0.5-1.2-0.8
			c-0.4-0.2-0.7-0.4-0.8-0.4c-0.2-0.1-0.3-0.2-0.3-0.3c-0.1-0.1-0.1-0.2-0.1-0.3c0-0.2,0.1-0.3,0.2-0.5c0.1-0.1,0.3-0.2,0.6-0.2
			c0.3,0,0.6,0.1,0.9,0.4c0.3,0.3,0.5,0.6,0.5,1h0.2l0-1.7h-0.1c0,0.2-0.1,0.2-0.1,0.3c0,0-0.1,0.1-0.2,0.1c-0.1,0-0.2,0-0.4-0.1
			c-0.2-0.1-0.3-0.1-0.4-0.2c-0.2,0-0.3-0.1-0.5-0.1c-0.4,0-0.8,0.1-1.1,0.4c-0.3,0.3-0.4,0.6-0.4,1c0,0.2,0.1,0.4,0.2,0.6
			c0.1,0.2,0.3,0.4,0.5,0.5c0.2,0.2,0.5,0.4,1,0.6c0.3,0.2,0.6,0.3,0.7,0.4c0.1,0.1,0.2,0.2,0.3,0.3c0.1,0.1,0.1,0.2,0.1,0.3
			c0,0.2-0.1,0.4-0.2,0.5c-0.2,0.2-0.4,0.2-0.7,0.2c-0.4,0-0.7-0.1-1-0.4C38.9,63.9,38.7,63.5,38.6,62.9 M37.9,59.7h-4.2v0.1h0.2
			c0.1,0,0.3,0,0.3,0.1c0.1,0,0.1,0.1,0.2,0.2c0,0.1,0,0.2,0,0.5v3.3c0,0.3,0,0.4,0,0.5c0,0.1-0.1,0.1-0.1,0.2
			c-0.1,0.1-0.2,0.1-0.4,0.1h-0.2v0.1h2.6v-0.1h-0.2c-0.1,0-0.3,0-0.3-0.1c-0.1,0-0.1-0.1-0.2-0.2c0-0.1,0-0.2,0-0.5v-1.5h0.1
			c0.3,0,0.5,0.1,0.7,0.2c0.2,0.2,0.3,0.5,0.4,0.9h0.1V61h-0.1c0,0.3-0.1,0.5-0.2,0.6c-0.1,0.2-0.2,0.3-0.4,0.3
			C36.1,62,35.9,62,35.7,62h-0.1V60H36c0.4,0,0.7,0,0.8,0.1c0.3,0.1,0.5,0.2,0.6,0.3c0.1,0.2,0.2,0.4,0.3,0.8h0.2V59.7z M33.3,59.7
			h-2.6v0.1h0.2c0.1,0,0.3,0,0.3,0.1c0.1,0,0.1,0.1,0.2,0.2c0,0.1,0,0.2,0,0.5v3.3c0,0.3,0,0.4,0,0.5c0,0.1-0.1,0.1-0.1,0.2
			c-0.1,0.1-0.2,0.1-0.4,0.1h-0.2v0.1h2.6v-0.1h-0.2c-0.1,0-0.3,0-0.3-0.1c-0.1,0-0.1-0.1-0.2-0.2c0-0.1,0-0.2,0-0.5v-3.3
			c0-0.3,0-0.4,0-0.5c0-0.1,0.1-0.1,0.2-0.2c0.1-0.1,0.2-0.1,0.4-0.1h0.2V59.7z M30.2,59.7h-4.5v1.4h0.1c0.1-0.4,0.2-0.7,0.4-0.9
			c0.2-0.1,0.4-0.2,0.7-0.2h0.4v3.9c0,0.3,0,0.4,0,0.5c0,0.1-0.1,0.1-0.2,0.2c-0.1,0.1-0.2,0.1-0.3,0.1h-0.2v0.1h2.6v-0.1h-0.2
			c-0.1,0-0.3,0-0.3-0.1c-0.1,0-0.1-0.1-0.2-0.2c0-0.1,0-0.2,0-0.5V60H29c0.2,0,0.4,0,0.5,0.1c0.2,0.1,0.3,0.2,0.4,0.3
			c0.1,0.1,0.2,0.4,0.3,0.7h0.1V59.7z M21.9,59.7h-1.8v0.1c0.2,0,0.3,0,0.4,0.1c0.1,0,0.2,0.1,0.3,0.3l0.1,0.1v3.5
			c0,0.3-0.1,0.5-0.2,0.6c-0.1,0.1-0.3,0.2-0.6,0.2v0.1h1.8v-0.1h-0.1c-0.2,0-0.3-0.1-0.5-0.2c-0.1-0.1-0.2-0.3-0.2-0.6v-3.2
			l3.4,4.2h0.1v-4.2c0-0.2,0-0.4,0.1-0.5c0-0.1,0.1-0.2,0.2-0.2c0.1,0,0.2-0.1,0.4-0.1v-0.1h-1.7v0.1c0.3,0,0.5,0.1,0.6,0.2
			c0.1,0.1,0.1,0.3,0.1,0.6v2.2L21.9,59.7z M19.3,59.7h-4.2v0.1h0.2c0.2,0,0.3,0,0.4,0.1c0.1,0,0.1,0.1,0.1,0.2c0,0.1,0,0.2,0,0.4
			v3.3c0,0.3,0,0.4,0,0.5c0,0.1-0.1,0.1-0.1,0.2c-0.1,0.1-0.2,0.1-0.4,0.1h-0.2v0.1h4.3l0.2-1.6h-0.1c-0.1,0.4-0.3,0.8-0.6,1
			c-0.3,0.2-0.7,0.3-1.1,0.3h-0.3c-0.1,0-0.2,0-0.3-0.1c-0.1,0-0.1-0.1-0.1-0.2c0-0.1,0-0.2,0-0.5v-1.4c0.2,0,0.4,0,0.5,0.1
			c0.1,0.1,0.2,0.2,0.3,0.4c0.1,0.2,0.2,0.4,0.2,0.7h0.1v-2.6h-0.1c0,0.4-0.1,0.7-0.3,0.9c-0.1,0.2-0.4,0.3-0.7,0.3H17v-2h0.5
			c0.4,0,0.6,0,0.8,0.1c0.2,0.1,0.4,0.2,0.6,0.3c0.1,0.2,0.2,0.4,0.3,0.8h0.1V59.7z M3,63H1.5l0.8-1.7L3,63z M5.3,64.6
			c-0.2,0-0.3-0.1-0.4-0.1c-0.1-0.1-0.3-0.3-0.4-0.7l-1.8-4.1H2.7l-1.8,4c-0.2,0.4-0.3,0.6-0.4,0.8c-0.1,0.1-0.3,0.2-0.4,0.2v0.1
			h1.7v-0.1c-0.3,0-0.4-0.1-0.5-0.1C1.1,64.4,1,64.3,1,64.2c0-0.1,0-0.2,0.1-0.4l0.2-0.5h1.8l0.3,0.6c0.1,0.2,0.1,0.3,0.1,0.3
			c0,0,0,0.1,0,0.1c0,0.1,0,0.1-0.1,0.2c-0.1,0.1-0.2,0.1-0.4,0.1H2.9v0.1h2.4V64.6z M9.5,61.1h0.1v-1.4H5.1v1.4h0.1
			c0.1-0.4,0.2-0.7,0.4-0.9C5.8,60.1,6.1,60,6.4,60h0.4v3.9c0,0.3,0,0.4,0,0.5c0,0.1-0.1,0.1-0.2,0.2c-0.1,0.1-0.2,0.1-0.4,0.1H6.1
			v0.1h2.6v-0.1H8.5c-0.1,0-0.3,0-0.3-0.1c-0.1,0-0.1-0.1-0.2-0.2c0-0.1,0-0.2,0-0.5V60h0.4c0.2,0,0.4,0,0.5,0.1
			c0.2,0.1,0.3,0.2,0.4,0.3C9.3,60.5,9.4,60.7,9.5,61.1 M14.7,59.7h-4.5v1.4h0.1c0.1-0.4,0.2-0.7,0.4-0.9c0.2-0.1,0.4-0.2,0.7-0.2
			h0.4v3.9c0,0.3,0,0.4,0,0.5c0,0.1-0.1,0.1-0.2,0.2c-0.1,0.1-0.2,0.1-0.4,0.1h-0.2v0.1h2.6v-0.1h-0.2c-0.1,0-0.3,0-0.3-0.1
			c-0.1,0-0.1-0.1-0.2-0.2c0-0.1,0-0.2,0-0.5V60h0.4c0.2,0,0.4,0,0.5,0.1c0.2,0.1,0.3,0.2,0.4,0.3c0.1,0.1,0.2,0.4,0.3,0.7h0.1V59.7
			z M62.1,21.1c-0.6,3.4-2.1,8.7-5.7,10.1c-0.2,0.1-0.4,0.1-0.6,0.2c1.9-6.8,3.8-13.6,5.8-20.4c0.2-0.7,0.4-1.3,0.6-2
			c0,0.6,0.1,1.3,0.1,1.9C62.4,14.3,62.7,17.7,62.1,21.1 M29.9,32.2c-0.1,0.8-0.2,1.5-0.3,2.3c-0.3,2.8-0.1,5.9-0.6,8.7
			c0,0.3-0.1,0.4-0.1,0.6c-1.1-1-2.4-1.9-3.6-2.9c-2.4-2.2-5.6-4.6-7.2-7.4c-1.2-2.1,0.3-2.9,2.5-2.7c3,0.3,6,1,8.9,1.4
			C29.6,32.2,29.8,32.2,29.9,32.2 M65.5,21.3c0.6-3.8,0-7.7-0.1-11.4c-0.1-2-0.2-4.1-0.4-6.1c-0.1-1-0.1-2.2-0.9-2.8
			c-0.3-0.2-2.7-1.3-2.9-0.7c-2.9,9.5-5.6,19.1-8.3,28.6C52.6,29.9,52.3,31,52,32c-1.4,0.1-2.8,0.2-4,0.2c-3.7,0.1-7.5-0.2-11.2-0.5
			c-1.1-0.1-2.2-0.2-3.2-0.3c0.4-3.6,0.9-7.2,1.4-10.9c0.5-3.4,1.6-15.2,1.6-15.2c0.2-3.2-3-4.1-3.3-1C33.2,5.5,33,7,32.9,8.3
			c-0.3,2.3-0.4,4.6-0.6,6.9c-0.6,5.3-1.5,10.6-2.2,15.9c-1.2-0.2-2.5-0.3-3.7-0.5c-2.9-0.4-5.9-1.2-8.8-1.3c-1.2,0-3.1,0.1-3.2,1.6
			c-0.1,1.3,1.2,2.7,2,3.6c2.7,3.2,6.2,6.1,9.5,8.7c1.4,1.1,2.7,2.2,4.4,2.6c2.2,0.5,2.2-0.7,2.3-2.8c0.2-3.4,0.5-6.8,0.9-10.2
			c4.8,0.6,9.7,0.9,14.6,0.8c1.2,0,2.4-0.1,3.6-0.1c-3.7,13.2-7.4,26.7-9.2,40.3c-0.3,2.3-0.6,4.7-0.4,7c0.2,2,0.9,5,3,3.4
			c0.3-0.2,0.8-0.1,0.4-1.4c-0.2-0.7-0.2-1.4-0.2-2.1c0-2.3,0.3-4.5,0.6-6.7c1-6.7,2.5-13.4,4.1-20c1.7-6.9,3.4-13.8,5.3-20.7
			c0.6-0.1,1.3-0.1,1.9-0.2c1.6-0.2,2.9-0.5,4.1-1.7C63.9,28.8,65,24.7,65.5,21.3 M119.2,41.9c-6.8,2.9-0.2-8.4-5-8.7
			c-2.3-0.1-9.1,9.4-8.8,7.5c0.1-1.7,0.6-7.3-1.6-7.3c-4,0-7.5,6.7-10.8,8.3c-0.6,0.4-1.2,0-1.1-0.8c0.4-4.2,0.5-8.1-2-8
			c-3.1,0.1-11.3,9.9-13.8,9.9c-2.2-0.1,0.1-8.5-2.8-8.1c-1,0.1-5.9,7.8-8.8,7.7c-1.9,0,2.1-8.4-1-8.6c-0.8,0.2-1.2,2.9-1.3,3.7
			c0,0-1.4,7.7,1.3,7.5c5.9-0.2,8.7-7.1,9.5-7.1c0.7,0-0.3,7.1,2.5,7.1c0.9,0,1.8-0.4,2.5-0.9l0,0l0.1,0c0.3-0.2,0.5-0.4,0.7-0.6
			l1.9-1.6l0,0c2.8-2.3,6.7-6.8,7.8-6.8c1.8,0.1,0.7,7,0.7,8.3c0,0.8,0.9,1,1.6,1c3.9,0,9.4-8.7,11.5-8.4c1.9,0.2,0.4,5.7,0.4,6.8
			c0,0.7,0.7,1,1.3,1c3,0,7.4-7.8,8.9-7.7c1,0,0.2,5,0.2,6.1c0,3.5,3.7,2.9,5.7,1.6C121.9,42.2,121.5,40.9,119.2,41.9 M118.7,64.7
			h2.6v-0.1h-0.2c-0.1,0-0.3,0-0.3-0.1c-0.1,0-0.1-0.1-0.2-0.2c0-0.1,0-0.2,0-0.5v-3.3c0-0.2,0-0.4,0-0.5c0-0.1,0.1-0.1,0.1-0.2
			c0.1-0.1,0.2-0.1,0.4-0.1h0.2v-0.1h-2L118,63l-1.4-3.3h-2v0.1h0.2c0.1,0,0.3,0,0.3,0.1c0.1,0,0.1,0.1,0.2,0.2c0,0.1,0,0.2,0,0.5
			v3.2c0,0.2,0,0.3,0,0.4c0,0.1-0.1,0.2-0.1,0.3c0,0.1-0.1,0.1-0.2,0.2c-0.1,0-0.2,0.1-0.3,0.1h-0.1v0.1h1.7v-0.1
			c-0.2,0-0.4,0-0.5-0.1c-0.1-0.1-0.2-0.2-0.2-0.3c0-0.1,0-0.2,0-0.5v-3.5l2,4.5h0.1l1.9-4.6v3.7c0,0.3,0,0.4,0,0.5
			c0,0.1-0.1,0.1-0.1,0.2c-0.1,0.1-0.2,0.1-0.4,0.1h-0.2V64.7z M123.7,59.7h-2v0.1h0.2c0.1,0,0.3,0,0.3,0.1c0.1,0,0.1,0.1,0.2,0.2
			c0,0.1,0,0.2,0,0.5v3.2c0,0.2,0,0.3,0,0.4c0,0.1-0.1,0.2-0.1,0.3c0,0.1-0.1,0.1-0.2,0.2c-0.1,0-0.2,0.1-0.3,0.1h-0.1v0.1h1.7v-0.1
			c-0.2,0-0.4,0-0.5-0.1c-0.1-0.1-0.2-0.2-0.2-0.3c0-0.1,0-0.2,0-0.5v-3.5l2,4.5h0.1l1.9-4.6v3.7c0,0.3,0,0.4,0,0.5
			c0,0.1-0.1,0.1-0.1,0.2c-0.1,0.1-0.2,0.1-0.4,0.1h-0.2v0.1h2.6v-0.1h-0.2c-0.1,0-0.3,0-0.3-0.1c-0.1,0-0.1-0.1-0.2-0.2
			c0-0.1,0-0.2,0-0.5v-3.3c0-0.2,0-0.4,0-0.5c0-0.1,0.1-0.1,0.1-0.2c0.1-0.1,0.2-0.1,0.4-0.1h0.2v-0.1h-2l-1.4,3.3L123.7,59.7z
			 M144.4,40.7c-0.8-0.9-3.2,1.9-7.6,1.6c-1.7-0.1-2.4-0.3-2.4-2.4c0-1.3,0.5-2,0.5-3.3c0-0.8-0.3-3.3-3.6-3.3c-5.9,0-9,4.5-9,10.1
			c0,1.3,0.9,2.3,2.3,2.3c0.9,0,6.8-1.9,6.8-3.7c0-1.1-6.8,2.6-6.3-0.4c0.4-2.5,2.5-5.4,5-6.4c1.6-0.7,2.8,0.8,2.5,1.7
			c-1.1,2.6-0.8,4.1-0.8,4.8c0.1,1.6,1.9,2.9,4.6,2.9C141.2,44.4,145.2,41.7,144.4,40.7 M147.2,62.9c-0.1,0.4-0.2,0.7-0.4,0.9
			c-0.1,0.2-0.3,0.3-0.5,0.4c-0.2,0.1-0.4,0.1-0.7,0.1h-0.4c-0.2,0-0.4,0-0.4,0c-0.1,0-0.1-0.1-0.2-0.2c0-0.1,0-0.2,0-0.5v-3.2
			c0-0.3,0-0.4,0-0.5c0-0.1,0.1-0.1,0.2-0.2c0.1-0.1,0.2-0.1,0.4-0.1h0.2v-0.1h-2.7v0.1h0.2c0.1,0,0.3,0,0.3,0.1
			c0.1,0,0.1,0.1,0.2,0.2c0,0.1,0,0.2,0,0.5v3.3c0,0.3,0,0.4,0,0.5c0,0.1-0.1,0.1-0.1,0.2c-0.1,0.1-0.2,0.1-0.4,0.1h-0.2v0.1h4.5
			l0.2-1.8H147.2z M158.8,39.7c-0.1-0.1-0.1-0.2-0.1-0.3c0-2.6,9.3-4.9,9.3-10.4c0-1.2-0.2-2.1-1.7-2.1c-4.3,0-9,4-12,6.6
			c-0.8,0-0.8-0.6-0.8-1.2c0-5.2,6.5-18,6.5-23.3c0-0.7-0.9-1.9-2,1.1c-0.4,1-8.1,24.6-8.1,24.6c-0.7,2.4-3,6.6-3,8.7
			c0,0.7,0.1,1.1,0.9,1.1c2.1,0,9.5-15,17.5-15c0,5.6-11.7,6.9-11.7,10.6c0,1.2,4.1,1.9,5.3,2.9c4.6,4.1,5.9,13.2,13.1,13.2
			c1.7,0,11.2-4.1,11.2-5.2c0-0.4-0.4-0.6-0.9-0.6c-3.5,0-6.4,3.8-10,3.8C166.9,54.2,163.9,42.3,158.8,39.7 M172.1,40.4
			c-0.7-1.6-0.2-5.1,2-5.1c0.5,0,1,0.9,1,1.3C175.1,38.1,173.3,39.5,172.1,40.4 M202.5,40.3c0-4-0.8-4.7-2.7-1.7
			c-0.8,1.3-6.5,6.9-6-3.6c0.2-3.4-1.1-0.8-3.2,1.9c-0.9,1.2-2.2,2.4-4,3.5c-4.8,3-9.7,4.7-13.1,1.9c1.5-0.8,4.3-3.1,4.3-5.7
			c0-1.7-1.3-4.2-3.2-4.2c-5.4,0-5.6,7-4.8,9l0.6,1.9c4.9,6,14.4,0.6,17-1.2c0.1-0.1,2.4-1.3,4.4-3.3c-0.1,2.7,1.1,4.4,3.2,4.7
			c2.3,0.3,3.7-1,5.5-2c0.8,10.2-4.2,26.7-14.9,26.4c-3.9-0.1-5.1-2.8-5.8-3.3c-1-0.7-1.6,0.4-1.7,1c-0.6,3.2,4.6,4,7.2,4
			C199.3,70.2,202.5,51.9,202.5,40.3"/>
	</g>
</g>
</svg>
