<?xml version="1.0" encoding="utf-8"?>
<!-- Generator: Adobe Illustrator 22.0.0, SVG Export Plug-In . SVG Version: 6.00 Build 0)  -->
<svg version="1.1" id="Layer_1" xmlns="http://www.w3.org/2000/svg" xmlns:xlink="http://www.w3.org/1999/xlink" x="0px" y="0px"
	 viewBox="0 0 500 500" height="100%" style="enable-background:new 0 0 500 500;" xml:space="preserve">
<style type="text/css">
	.st0{fill:#0F5F6B;stroke:#000000;stroke-miterlimit:10;}
	.st1{fill:#083133;}
</style>
<rect x="0.5" y="-0.5" class="st0" width="500" height="500"/>
<g>
	<g>
		<g>
			<path class="st1" d="M288.8,209.9c-8.4,0-15.3,6.9-15.3,15.3s6.9,15.3,15.3,15.3c8.4,0,15.3-6.9,15.3-15.3
				C304.1,216.8,297.2,209.9,288.8,209.9z M288.8,234.6c-5.2,0-9.4-4.2-9.4-9.4s4.2-9.4,9.4-9.4c5.2,0,9.4,4.2,9.4,9.4
				C298.1,230.4,293.9,234.6,288.8,234.6z"/>
			<path class="st1" d="M288.9,304.9c-0.1-0.2-0.2-0.4-0.3-0.5c-0.1-0.2-0.2-0.3-0.4-0.5s-0.3-0.3-0.5-0.4c-0.2-0.1-0.3-0.2-0.5-0.3
				c-0.2-0.1-0.4-0.1-0.6-0.2c-0.4-0.1-0.8-0.1-1.2,0c-0.2,0-0.4,0.1-0.6,0.2c-0.2,0.1-0.4,0.2-0.5,0.3c-0.2,0.1-0.3,0.2-0.5,0.4
				s-0.3,0.3-0.4,0.5c-0.1,0.2-0.2,0.3-0.3,0.5c-0.1,0.2-0.1,0.4-0.2,0.6c0,0.2-0.1,0.4-0.1,0.6s0,0.4,0.1,0.6
				c0,0.2,0.1,0.4,0.2,0.6c0.1,0.2,0.2,0.4,0.3,0.5c0.1,0.2,0.2,0.3,0.4,0.5c0.1,0.1,0.1,0.1,0.2,0.2c0.1,0.1,0.2,0.1,0.2,0.2
				c0.2,0.1,0.3,0.2,0.5,0.3c0.2,0.1,0.4,0.1,0.6,0.2c0.2,0,0.4,0.1,0.6,0.1s0.4,0,0.6-0.1c0.2,0,0.4-0.1,0.6-0.2
				c0.2-0.1,0.4-0.2,0.5-0.3c0.1-0.1,0.2-0.1,0.2-0.2c0.1-0.1,0.1-0.1,0.2-0.2c0.1-0.1,0.3-0.3,0.4-0.5c0.1-0.2,0.2-0.3,0.3-0.5
				c0.1-0.2,0.1-0.4,0.2-0.6c0-0.2,0.1-0.4,0.1-0.6s0-0.4-0.1-0.6C289,305.3,289,305.1,288.9,304.9z"/>
			<path class="st1" d="M242.2,187.5c-0.1-0.2-0.2-0.4-0.3-0.5c-0.1-0.2-0.2-0.3-0.4-0.5s-0.3-0.3-0.5-0.4c-0.2-0.1-0.3-0.2-0.5-0.3
				c-0.2-0.1-0.4-0.1-0.6-0.2c-0.4-0.1-0.8-0.1-1.2,0c-0.2,0-0.4,0.1-0.6,0.2c-0.2,0.1-0.4,0.2-0.5,0.3c-0.2,0.1-0.3,0.2-0.5,0.4
				s-0.3,0.3-0.4,0.5c-0.1,0.2-0.2,0.3-0.3,0.5c-0.1,0.2-0.1,0.4-0.2,0.6c0,0.2-0.1,0.4-0.1,0.6c0,0.2,0,0.4,0.1,0.6
				c0,0.2,0.1,0.4,0.2,0.6c0.1,0.2,0.2,0.4,0.3,0.5c0.1,0.2,0.2,0.3,0.4,0.5c0.1,0.1,0.3,0.3,0.5,0.4c0.2,0.1,0.3,0.2,0.5,0.3
				c0.2,0.1,0.4,0.1,0.6,0.2s0.4,0.1,0.6,0.1s0.4,0,0.6-0.1s0.4-0.1,0.6-0.2c0.2-0.1,0.4-0.2,0.5-0.3c0.2-0.1,0.3-0.2,0.5-0.4
				c0.1-0.1,0.3-0.3,0.4-0.5c0.1-0.2,0.2-0.3,0.3-0.5c0.1-0.2,0.1-0.4,0.2-0.6c0-0.2,0.1-0.4,0.1-0.6c0-0.2,0-0.4-0.1-0.6
				C242.3,187.8,242.2,187.6,242.2,187.5z"/>
			<path class="st1" d="M311.4,185.6c-1.8-7.5-8.5-13.1-16.6-13.1h-93.1c-14.1,0-25.7,11.5-25.7,25.7v93.1c0,9.3,7.4,16.8,16.6,17.1
				c1.8,7.5,8.5,13.1,16.6,13.1h101.7c9.4,0,17.1-7.7,17.1-17.1V282v-79.3C328,193.5,320.6,185.9,311.4,185.6z M322.1,304.4
				c0,6.1-5,11.1-11.1,11.1H209.2c-4.8,0-8.8-3-10.4-7.2c-0.5-1.2-0.7-2.6-0.7-3.9v-2v-13.8l34.1-57.7c1-1.8,2.9-2.8,4.9-2.8
				c2,0,3.8,1.1,4.8,2.9l14.7,26.9l21.3,39.1c0.5,1,1.6,1.5,2.6,1.5c0.5,0,1-0.1,1.4-0.4c1.4-0.8,2-2.6,1.2-4l-6.9-12.7
				c3,0.1,6-0.8,8.4-2.8l13.4-11.1c2.1-1.8,5.3-1.7,7.4,0.2l0.7,0.6l5.9,5.4l10.2,9.3V304.4z M322.1,275.3l-10.2-9.3l-5.9-4.5
				c-3.9-1.6-8.5-1.1-11.8,1.7l-13.4,11.1c-1.5,1.2-3.4,1.7-5.3,1.4c-1.9-0.4-3.5-1.5-4.4-3.2l-9.4-17.2l-5.2-9.6v0l-9.4-17.3
				c-2-3.7-5.7-5.9-9.9-6c-4.2-0.1-8,2-10.1,5.7L198.1,277v-74.3c0-6.1,5-11.1,11.1-11.1h18.3c1.6,0,3-1.3,3-3s-1.3-3-3-3h-18.3
				c-9.4,0-17.1,7.7-17.1,17.1v85.2v14.5c-5.7-0.5-10.2-5.3-10.2-11.1v-93.1c0-10.9,8.8-19.7,19.7-19.7h93.1c4.8,0,8.8,3,10.4,7.2
				h-53.9c-1.6,0-3,1.3-3,3c0,1.6,1.3,3,3,3h54.6l5.9,0c5.7,0.5,10.2,5.3,10.2,11.1V275.3z"/>
		</g>
	</g>
</g>
</svg>
