<?xml version="1.0" encoding="utf-8"?>
<!-- Generator: Adobe Illustrator 23.1.1, SVG Export Plug-In . SVG Version: 6.00 Build 0)  -->
<svg version="1.1" id="Calque_1" xmlns="http://www.w3.org/2000/svg" xmlns:xlink="http://www.w3.org/1999/xlink" x="0px" y="0px"
	 viewBox="0 0 85.8 63.6" width="85.8" height="63.6" style="enable-background:new 0 0 85.8 63.6;" xml:space="preserve">
<title>ICON-360</title>
<g id="Groupe_267">
	<path id="Tracé_1134" class="st0" d="M22.9,12.3c0.6,0,1-0.4,1-1l0,0c0-4.8,8.4-8.8,18.3-8.8c1.9,0,3.9,0.2,5.8,0.4l-1.8,1
		l2.6,0.6c1,0.3,2.1,0.5,3.1,0.8c2.3,0.6,4.5,1.3,6.7,2l3.3,1.1l-2.1-2.7c-0.3-0.4-0.5-0.7-0.8-1c-1.3-1.6-2.7-3-4.2-4.4L54.2,0
		l-0.6,0.2C52.8,0.6,51.9,1,51,1.4c-2.9-0.7-5.8-1-8.7-1c-11.4,0-20.4,4.8-20.4,10.8c0,0.6,0.4,1,0.9,1.1
		C22.8,12.3,22.8,12.3,22.9,12.3L22.9,12.3z"/>
	<path id="Tracé_1135" class="st0" d="M43.5,21.6c-1.9,0-3.9-0.2-5.8-0.5l1.8-1l-2.6-0.6c-1-0.3-2.1-0.5-3.1-0.8
		c-2.3-0.6-4.5-1.3-6.7-2L24,15.6l2.1,2.7c0.3,0.4,0.5,0.7,0.8,1c1.3,1.6,2.7,3,4.2,4.4l0.5,0.4l0.6-0.2c0.9-0.4,1.8-0.8,2.7-1.2
		c2.9,0.7,5.8,1,8.7,1C55,23.8,64,19,64,12.9c0-0.6-0.5-1-1-1c-0.6,0-1,0.5-1,1l0,0C61.9,17.6,53.5,21.6,43.5,21.6z"/>
</g>
<polygon class="st0" points="85.8,37.5 0,37.5 0,27 1,27 1,36.5 84.8,36.5 84.8,27 85.8,27 "/>
<g>
	<g>
		<path class="st0" d="M26.7,48.9c0.6,0.3,1.1,0.8,1.5,1.3c0.4,0.6,0.5,1.3,0.5,2c0,0.9-0.3,1.7-0.8,2.4c-0.7,0.7-1.5,1.1-2.5,1.1
			v0.1c1,0.2,1.9,0.6,2.6,1.2c0.7,0.6,1,1.5,1,2.5c0,1.1-0.4,2.2-1.2,2.9c-1,0.8-2.2,1.2-3.5,1.1c-1.3,0.1-2.6-0.4-3.6-1.2
			c-1-0.9-1.6-2.1-1.7-3.4h1.5c0.1,0.9,0.5,1.8,1.2,2.4c0.7,0.6,1.6,0.9,2.6,0.9c0.9,0.1,1.7-0.2,2.4-0.8c0.6-0.5,0.9-1.3,0.8-2.1
			c0-0.9-0.4-1.8-1.2-2.3c-1-0.6-2.1-0.8-3.3-0.8h-0.5v-1.2H23c2.8,0,4.3-0.9,4.3-2.8c0-0.8-0.2-1.5-0.8-2c-0.6-0.5-1.4-0.8-2.2-0.7
			c-0.9,0-1.7,0.3-2.4,0.8c-0.7,0.6-1.1,1.4-1.2,2.3h-1.5c0-1.2,0.6-2.4,1.5-3.2c1-0.8,2.3-1.2,3.5-1.2
			C25.1,48.3,25.9,48.5,26.7,48.9z"/>
		<path class="st0" d="M40.2,50.4c-0.6-0.5-1.4-0.8-2.2-0.8c-1.2-0.1-2.3,0.5-3,1.5c-0.8,1.4-1.1,3.1-1,4.7c0,0.4,0,0.7,0,0.9
			c0.2-0.9,0.7-1.7,1.5-2.2c0.8-0.6,1.8-0.8,2.8-0.8c1.3-0.1,2.6,0.4,3.5,1.3c0.9,1,1.3,2.3,1.3,3.7c0,0.9-0.2,1.7-0.5,2.5
			c-0.3,0.7-0.9,1.4-1.6,1.8c-0.8,0.5-1.8,0.7-2.8,0.7c-2.1,0-3.6-0.7-4.3-2c-0.9-1.7-1.3-3.5-1.2-5.4c-0.1-2,0.3-4.1,1.3-5.9
			c0.9-1.4,2.5-2.1,4.1-2c1.2-0.1,2.3,0.4,3.2,1.2c0.8,0.8,1.3,1.9,1.3,3h-1.4C41.2,51.8,40.8,51,40.2,50.4z M34.7,60.4
			c0.3,0.6,0.7,1.1,1.3,1.5c0.7,0.4,1.4,0.6,2.2,0.6c1,0,1.9-0.3,2.6-1c0.7-0.7,1.1-1.7,1-2.7c0.1-1-0.3-2.1-1-2.8
			c-0.7-0.7-1.7-1-2.7-1c-0.6,0-1.3,0.1-1.8,0.4c-0.6,0.3-1.1,0.7-1.5,1.2c-0.4,0.6-0.6,1.2-0.6,1.9C34.2,59,34.4,59.7,34.7,60.4
			L34.7,60.4z"/>
		<path class="st0" d="M46.7,56c-0.1-1.9,0.3-3.8,1.1-5.5c0.8-1.4,2.4-2.2,4-2c1.6-0.2,3.2,0.6,4,2c0.8,1.7,1.2,3.6,1.1,5.5
			c0.1,1.9-0.3,3.8-1.1,5.6c-0.8,1.4-2.4,2.2-4,2c-1.6,0.2-3.2-0.6-4-2C46.9,59.9,46.6,58,46.7,56z M55.4,56c0-1.1-0.1-2.2-0.3-3.3
			C55,52,54.6,51.2,54,50.6c-1.3-1-3.2-1-4.6,0c-0.6,0.6-0.9,1.3-1.1,2.1c-0.2,1.1-0.3,2.2-0.3,3.3c0,1.1,0.1,2.2,0.3,3.3
			c0.1,0.8,0.5,1.5,1.1,2.1c1.3,1,3.2,1,4.6,0c0.6-0.6,0.9-1.3,1.1-2.1C55.3,58.2,55.4,57.2,55.4,56z"/>
		<path class="st0" d="M65.8,49.8c0.7,0.7,1,1.7,1,2.7c0,1-0.3,2-1,2.7c-0.7,0.7-1.6,1-2.5,1c-1,0-1.9-0.3-2.6-1
			c-0.7-0.7-1-1.7-1-2.7c0-1,0.3-1.9,1-2.7C62.2,48.5,64.4,48.5,65.8,49.8L65.8,49.8z M61.6,50.5c-0.4,0.6-0.7,1.3-0.6,2.1
			c0,0.7,0.2,1.4,0.6,2c0.4,0.5,1,0.8,1.7,0.7c0.6,0,1.2-0.2,1.7-0.7c0.4-0.6,0.7-1.3,0.6-2c0.1-0.8-0.2-1.5-0.6-2.1
			c-0.9-0.9-2.3-1-3.3-0.1C61.7,50.4,61.7,50.4,61.6,50.5L61.6,50.5z"/>
	</g>
</g>
</svg>
