<?xml version="1.0" encoding="utf-8"?>
<!-- Generator: Adobe Illustrator 23.1.1, SVG Export Plug-In . SVG Version: 6.00 Build 0)  -->
<svg version="1.1" id="Calque_1" xmlns="http://www.w3.org/2000/svg" xmlns:xlink="http://www.w3.org/1999/xlink" x="0px" y="0px"
	 viewBox="0 0 140 105.6" width="140" height="105.6" style="enable-background:new 0 0 140 105.6;" xml:space="preserve">
<path d="M133.7,13.5H97.2L90.8,0.6c-0.2-0.3-0.6-0.6-1-0.6H50.2c-0.5,0-0.9,0.3-1.1,0.7l-6.4,12.8H6.3
	c-3.5,0-6.3,2.8-6.3,6.3v79.6c0,3.5,2.8,6.3,6.3,6.3h127.4c3.5,0,6.3-2.8,6.3-6.3V19.8C140,16.3,137.2,13.5,133.7,13.5z M137.6,99.4
	c0,2.1-1.7,3.9-3.9,3.9l0,0H6.3c-2.1,0-3.9-1.7-3.9-3.9V19.8c0-2.1,1.7-3.9,3.9-3.9h37.9l1.2-2.4l0,0L51,2.3h38l6.8,13.6h37.9
	c2.1,0,3.9,1.7,3.9,3.9L137.6,99.4z"/>
<path d="M69.9,31.5c-15.5,0-28.1,12.5-28.1,28s12.5,28.1,28,28.1s28.1-12.5,28.1-28c0,0,0,0,0,0
	C97.9,44.1,85.4,31.6,69.9,31.5z M69.9,85.3c-14.2,0-25.7-11.6-25.7-25.8S55.8,33.8,70,33.8c14.2,0,25.7,11.5,25.7,25.8
	C95.7,73.8,84.2,85.3,69.9,85.3z"/>
</svg>
