<?xml version="1.0" encoding="utf-8"?>
<!-- Generator: Adobe Illustrator 23.1.1, SVG Export Plug-In . SVG Version: 6.00 Build 0)  -->
<svg version="1.1" id="Calque_1" xmlns="http://www.w3.org/2000/svg" xmlns:xlink="http://www.w3.org/1999/xlink" x="0px" y="0px"
	 viewBox="0 0 54.5 34.6" width="54.5" height="34.6" style="enable-background:new 0 0 54.5 34.6;" xml:space="preserve">
<path id="Tracé_5" d="M22.6,27.1C17.2,30,10.4,28,7.5,22.6S6.6,10.4,12,7.5c3.3-1.8,7.3-1.8,10.6,0l-9.8,9.8L22.6,27.1
	z M27.2,11.5l5.8,5.8l-5.8,5.8l-5.8-5.8L27.2,11.5z M37.2,6.1c6.2,0,11.1,5,11.1,11.2c0,6.2-5,11.1-11.2,11.1
	c-1.8,0-3.6-0.5-5.2-1.3l9.8-9.8l-9.9-9.8C33.5,6.6,35.3,6.1,37.2,6.1 M37.2,0c-3.6,0-7.1,1.1-10,3.2C19.4-2.3,8.6-0.5,3.1,7.3
	s-3.6,18.6,4.2,24.1c6,4.2,13.9,4.2,19.9,0c7.8,5.5,18.6,3.6,24.1-4.2s3.6-18.6-4.2-24.1C44.2,1.1,40.7,0,37.2,0"/>
</svg>
