<?xml version="1.0" encoding="utf-8"?>
<!-- Generator: Adobe Illustrator 22.0.0, SVG Export Plug-In . SVG Version: 6.00 Build 0)  -->
<svg version="1.1" id="Layer_1" xmlns="http://www.w3.org/2000/svg" xmlns:xlink="http://www.w3.org/1999/xlink" x="0px" y="0px"
	 viewBox="0 0 42.5 28.6" style="enable-background:new 0 0 42.5 28.6;" xml:space="preserve">
<g id="Groupe_2">
	<path id="Tracé_6" d="M18.9,20.8c-3.5,1.9-7.9,0.6-9.8-2.9C7.2,14.3,8.5,9.9,12,8c2.1-1.1,4.7-1.1,6.8,0l-6.4,6.4L18.9,20.8z
		 M21.9,10.6l3.8,3.8l-3.8,3.8l-3.8-3.8L21.9,10.6z M28.3,7.2c4,0,7.2,3.2,7.3,7.2c0,4-3.2,7.2-7.2,7.3c-1.2,0-2.4-0.3-3.5-0.9
		l6.4-6.4l-6.4-6.4C26,7.5,27.1,7.2,28.3,7.2 M28.3,3.2c-2.3,0-4.6,0.7-6.5,2.1c-5.1-3.6-12-2.4-15.6,2.7S3.9,20,9,23.5
		c3.9,2.7,9,2.7,12.9,0c5.1,3.6,12,2.3,15.6-2.7s2.3-12-2.7-15.6C32.9,3.9,30.6,3.2,28.3,3.2"/>
</g>
</svg>
