<?xml version="1.0" encoding="utf-8"?>
<!-- Generator: Adobe Illustrator 23.1.1, SVG Export Plug-In . SVG Version: 6.00 Build 0)  -->
<svg version="1.1" id="Calque_1" xmlns="http://www.w3.org/2000/svg" xmlns:xlink="http://www.w3.org/1999/xlink" x="0px" y="0px"
	 viewBox="0 0 24.1 24" width="24.1" height="24" style="enable-background:new 0 0 24.1 24;" xml:space="preserve">
<g id="_">
	<g>
		<path d="M23.8,20.2c0.2,0.2,0.3,0.4,0.2,0.6c0,0.2-0.1,0.5-0.2,0.6l-2.4,2.3c-0.1,0.2-0.3,0.2-0.6,0.2
			c-0.2,0-0.5-0.1-0.6-0.2l-8.2-8.2l-8.2,8.2C3.7,23.9,3.5,24,3.3,24c-0.2,0-0.5-0.1-0.6-0.2l-2.4-2.3c-0.2-0.2-0.3-0.4-0.2-0.6
			c0-0.2,0.1-0.5,0.2-0.6L8.6,12L0.3,3.9C0,3.6-0.1,3.1,0.2,2.8c0-0.1,0.1-0.1,0.2-0.2l2.3-2.4C2.8,0.1,3,0,3.2,0
			c0.2,0,0.5,0.1,0.6,0.2l8.2,8.1l8.2-8.1C20.4,0.1,20.7,0,20.9,0c0.2,0,0.5,0.1,0.6,0.2l2.3,2.4c0.3,0.2,0.4,0.7,0.2,1
			c0,0.1-0.1,0.1-0.2,0.2l-8.3,8.1L23.8,20.2z"/>
	</g>
</g>
</svg>
