<?xml version="1.0" encoding="utf-8"?>
<!-- Generator: Adobe Illustrator 23.1.1, SVG Export Plug-In . SVG Version: 6.00 Build 0)  -->
<svg version="1.1" id="Calque_1" xmlns="http://www.w3.org/2000/svg" xmlns:xlink="http://www.w3.org/1999/xlink" x="0px" y="0px"
	 viewBox="0 0 140 92.1" width="140" height="92.1" style="enable-background:new 0 0 140 92.1;" xml:space="preserve">
<path d="M133.7,92.1H6.3c-3.5,0-6.3-2.8-6.3-6.3V6.3C0,2.8,2.8,0,6.3,0h127.4c3.5,0,6.3,2.8,6.3,6.3v79.6
	C140,89.3,137.2,92.1,133.7,92.1z M6.3,2.4c-2.2,0-3.9,1.7-3.9,3.9v79.6c0,2.1,1.7,3.9,3.9,3.9h127.5c2.1,0,3.9-1.7,3.9-3.9V6.3
	c0-2.1-1.7-3.9-3.9-3.9H6.3z"/>
<path d="M70,61.8c-4.6,0-9.1-1.8-12.5-5L3.3,5.1C2.8,4.6,2.7,3.9,3.2,3.4s1.2-0.6,1.7-0.2L5,3.3L59.2,55
	c6.1,5.8,15.6,5.8,21.7,0L135,3.3c0.5-0.5,1.2-0.5,1.7,0c0.4,0.4,0.5,1.1,0.1,1.6c0,0.1-0.1,0.1-0.1,0.2L82.5,56.8
	C79.1,60,74.7,61.8,70,61.8z"/>
<path d="M4.2,89.2c-0.7,0-1.2-0.6-1.1-1.3c0-0.3,0.1-0.5,0.3-0.7l41.9-41.9c0.5-0.5,1.2-0.5,1.7,0
	c0.5,0.5,0.5,1.2,0,1.7l0,0L5,88.8C4.8,89,4.5,89.1,4.2,89.2z"/>
<path d="M135.8,89.2c-0.3,0-0.6-0.1-0.8-0.4L93.1,46.9c-0.5-0.5-0.5-1.2,0-1.7l0,0c0.5-0.5,1.2-0.5,1.7,0l41.9,41.9
	c0.4,0.5,0.4,1.3-0.1,1.7C136.3,89,136.1,89.1,135.8,89.2L135.8,89.2z"/>
</svg>
