<svg class="logo_capital" data-name="Calque 1" xmlns="http://www.w3.org/2000/svg" viewBox="0 0 173 40.9" width="173" height="40.9">
            <path id="Tracé_6" data-name="Tracé 6" class="cls-1" d="M170.71,23.62a7.22,7.22,0,1,1-12.72,0L164.35,30Zm-10.12-3,3.76-3.77,3.77,3.77-3.77,3.77Zm-3.46-6.45a7.23,7.23,0,1,1,13.58,3.43l-6.36-6.36L158,17.59a7.18,7.18,0,0,1-.86-3.43m-4,0a11.14,11.14,0,0,0,2.05,6.45,11.19,11.19,0,1,0,18.29,0,11.19,11.19,0,1,0-20.34-6.45" transform="translate(-2.54 -2.98)" />       
            <path id="Tracé_7" data-name="Tracé 7" class="cls-1" d="M5.8,17a11.71,11.71,0,0,0,0,16.2,11.05,11.05,0,0,0,8,3.14,11.06,11.06,0,0,0,6.6-2.06,9.84,9.84,0,0,0,2-1.93L19.1,29.59a6.28,6.28,0,0,1-5.32,2.63c-4,0-6.87-2.84-6.87-7.14A7,7,0,0,1,8.84,20a6.69,6.69,0,0,1,4.94-2,5.93,5.93,0,0,1,5.29,2.72l3.34-2.77a9.86,9.86,0,0,0-2.16-2,10.75,10.75,0,0,0-6.47-2.06A11.1,11.1,0,0,0,5.8,17" transform="translate(-2.54 -2.98)" />           
            <path id="Tracé_8" data-name="Tracé 8" class="cls-1" d="M31.2,30.41a7.21,7.21,0,0,1-2-5.33,7.12,7.12,0,0,1,2-5.29,6.71,6.71,0,0,1,5-2,7.1,7.1,0,0,1,7,7.22v.08a7,7,0,0,1-2.1,5.29,7,7,0,0,1-4.89,2,6.7,6.7,0,0,1-5-2M28,17a11,11,0,0,0-3.13,8.08A11.1,11.1,0,0,0,28,33.2a10.12,10.12,0,0,0,7.45,3.14c3.26,0,6-1.07,7.69-3.22v2.49h4.45V14.45H43.11v2.6a9.84,9.84,0,0,0-7.69-3.22A10,10,0,0,0,28,17" transform="translate(-2.54 -2.98)" />         
            <path id="Tracé_9" data-name="Tracé 9" class="cls-1" d="M59.71,30.37a7,7,0,0,1-2.1-5.29,7.11,7.11,0,0,1,6.91-7.3h.07a6.73,6.73,0,0,1,5,2,7.15,7.15,0,0,1,2,5.29,7.25,7.25,0,0,1-2,5.33,6.71,6.71,0,0,1-5,2,6.91,6.91,0,0,1-4.88-2M57.59,17v-2.6H53.13V43.87h4.46V33.12c1.66,2.15,4.46,3.22,7.72,3.22a10,10,0,0,0,7.43-3.14,12.05,12.05,0,0,0,0-16.2,10.13,10.13,0,0,0-7.43-3.17,9.87,9.87,0,0,0-7.72,3.22" transform="translate(-2.54 -2.98)" /> 
            <path id="Tracé_10" data-name="Tracé 10" class="cls-1" d="M93.22,6.93v7.52H88.49v3.62h4.73V28.48c0,5.15,2.84,7.86,7.6,7.86a10.31,10.31,0,0,0,5.2-1.63L104.68,31a6.23,6.23,0,0,1-3.56,1.16c-2.19,0-3.45-1.38-3.45-4V18.07h7.24V14.45H97.67V6.93Z" transform="translate(-2.54 -2.98)" />   
            <path id="Tracé_11" data-name="Tracé 11" class="cls-1" d="M114.12,30.35a7.26,7.26,0,0,1-2-5.32,7.15,7.15,0,0,1,2-5.27,6.78,6.78,0,0,1,5-2,7.12,7.12,0,0,1,7,7.24V25a7,7,0,0,1-6.79,7.29h-.2a6.68,6.68,0,0,1-5-2M111,17A11,11,0,0,0,107.82,25a11.08,11.08,0,0,0,3.09,8.1,10.16,10.16,0,0,0,7.46,3.13,9.84,9.84,0,0,0,7.71-3.21V35.6h4.45V14.44h-4.45V17a9.88,9.88,0,0,0-7.71-3.21A10.11,10.11,0,0,0,111,17" transform="translate(-2.54 -2.98)" />    
            <path id="Tracé_12" data-name="Tracé 12" class="cls-1" d="M136.1,6.93v22.9a6.08,6.08,0,0,0,5.7,6.43,4.45,4.45,0,0,0,.73,0,9,9,0,0,0,4.21-1.11l-.86-3.73a6.42,6.42,0,0,1-2.58.64,2.51,2.51,0,0,1-2.74-2.26c0-.07,0-.15,0-.23V6.93Z" transform="translate(-2.54 -2.98)" />
            <rect id="Rectangle_2" data-name="Rectangle 2" class="cls-1" x="76.93" y="11.6" width="4.45" height="21.16" />   
            <path id="Tracé_13" data-name="Tracé 13" class="cls-1" d="M78.94,6.88A2.76,2.76,0,1,0,81.7,4.11a2.76,2.76,0,0,0-2.76,2.77h0" transform="translate(-2.54 -2.98)" />
    <image src="./public/assets/svgs/logo.png" xlink:href="" />
	</svg>
