<?xml version="1.0" encoding="utf-8"?>
<!-- Generator: Adobe Illustrator 23.1.1, SVG Export Plug-In . SVG Version: 6.00 Build 0)  -->
<svg version="1.1" id="Calque_1" xmlns="http://www.w3.org/2000/svg" xmlns:xlink="http://www.w3.org/1999/xlink" x="0px" y="0px"
	 viewBox="0 0 33 81.5" width="33" height="81.5" style="enable-background:new 0 0 33 81.5;" xml:space="preserve">
<g id="Rectangle_19">
	<path fill="none" d="M16.5,0L16.5,0C25.6,0,33,7.4,33,16.5v19C33,44.6,25.6,52,16.5,52l0,0C7.4,52,0,44.6,0,35.5c0,0,0,0,0,0v-19
		C0,7.4,7.4,0,16.5,0z"/>
	<path class="st1" d="M16.5,52C7.4,52,0,44.6,0,35.5v-19C0,7.4,7.4,0,16.5,0C25.6,0,33,7.4,33,16.5v19C33,44.6,25.6,52,16.5,52z
		 M16.5,2C8.5,2,2,8.5,2,16.5v19C2,43.5,8.5,50,16.5,50S31,43.5,31,35.5v-19C31,8.5,24.5,2,16.5,2z"/>
</g>
<g id="Rectangle_20">
	<path fill="#fff" d="M16.5,26C14,26,12,24,12,21.5v-5c0-2.5,2-4.5,4.5-4.5s4.5,2,4.5,4.5v5C21,24,19,26,16.5,26z M16.5,15
		c-0.8,0-1.5,0.7-1.5,1.5v5c0,0.8,0.7,1.5,1.5,1.5c0.8,0,1.5-0.7,1.5-1.5v-5C18,15.7,17.3,15,16.5,15C16.5,15,16.5,15,16.5,15z"/>
</g>
<g id="_">
	<g>
		<path fill="#fff" d="M16.8,67.1l6.8-6.5c0.1-0.2,0.4-0.2,0.6-0.1c0,0,0,0,0.1,0.1l1.2,1.2c0.2,0.1,0.2,0.4,0.1,0.5
			c0,0-0.1,0.1-0.1,0.1l-8.3,8c-0.2,0.2-0.4,0.2-0.6,0l-8.3-8c-0.2-0.1-0.2-0.4-0.1-0.5c0,0,0.1-0.1,0.1-0.1l1.2-1.2
			c0.1-0.2,0.4-0.2,0.6-0.1c0,0,0,0,0.1,0.1L16.8,67.1z"/>
	</g>
</g>
<g id="_2">
	<g>
		<path fill="#fff" d="M16.8,78.1l6.8-6.5c0.1-0.2,0.4-0.2,0.6-0.1c0,0,0,0,0.1,0.1l1.2,1.2c0.2,0.1,0.2,0.4,0.1,0.5
			c0,0-0.1,0.1-0.1,0.1l-8.3,8c-0.2,0.2-0.4,0.2-0.6,0l-8.3-8c-0.2-0.1-0.2-0.4-0.1-0.5c0,0,0.1-0.1,0.1-0.1l1.2-1.2
			c0.1-0.2,0.4-0.2,0.6-0.1c0,0,0,0,0.1,0.1L16.8,78.1z"/>
	</g>
</g>
</svg>
