<?xml version="1.0" encoding="utf-8"?>
<!-- Generator: Adobe Illustrator 22.0.0, SVG Export Plug-In . SVG Version: 6.00 Build 0)  -->
<svg version="1.1" id="Layer_1" xmlns="http://www.w3.org/2000/svg" xmlns:xlink="http://www.w3.org/1999/xlink" x="0px" y="0px"
	 viewBox="0 0 512 512" style="enable-background:new 0 0 512 512;" xml:space="preserve">
<g>
	<g>
		<path d="M431.4,80.6C335-16.7,178-17.6,80.6,78.8s-98.2,253.4-1.9,350.7c0.6,0.6,1.2,1.2,1.9,1.9c96.3,97.4,253.4,98.2,350.7,1.9
			s98.2-253.4,1.9-350.7C432.6,81.9,432,81.3,431.4,80.6z M420,420c-90.6,90.6-237.5,90.6-328.1,0s-90.6-237.5,0-328.1
			s237.5-90.6,328.1,0S510.7,329.4,420,420z"/>
	</g>
	<path d="M208.5,352c-4.4,0-8-3.6-8-8V168c0-4.4,3.6-8,8-8c1.5,0,2.9,0.4,4.1,1.1l145.9,88c3.8,2.3,5,7.2,2.7,11
		c-0.7,1.1-1.6,2-2.7,2.7l-145.9,88C211.4,351.6,210,352,208.5,352z M216.5,182.2v147.7L339,256L216.5,182.2z"/>
</g>
</svg>
