<?xml version="1.0" encoding="utf-8"?>
<!-- Generator: Adobe Illustrator 22.0.0, SVG Export Plug-In . SVG Version: 6.00 Build 0)  -->
<svg version="1.1" id="Layer_1" xmlns="http://www.w3.org/2000/svg" xmlns:xlink="http://www.w3.org/1999/xlink" x="0px" y="0px"
	 viewBox="0 0 28 37.8" style="enable-background:new 0 0 28 37.8;" height="100" xml:space="preserve" classname="slider_svg">
<g id="Groupe_2">
	<path id="Tracé_6" d="M21.1,25.6c0,4-3.2,7.2-7.2,7.3s-7.2-3.2-7.3-7.2c0-1.2,0.3-2.4,0.9-3.5l6.4,6.4l6.4-6.4
		C20.8,23.3,21.1,24.4,21.1,25.6 M25,25.6c0-2.3-0.7-4.6-2.1-6.5c3.6-5.1,2.4-12-2.7-15.6C15.3,0,8.3,1.2,4.7,6.3
		c-2.7,3.9-2.7,9,0,12.9c-3.6,5.1-2.3,12,2.7,15.6s12,2.3,15.6-2.7C24.3,30.2,25,27.9,25,25.6"/>
</g>
</svg>
