<svg id="Calque_1" data-name="Calque 1" xmlns="http://www.w3.org/2000/svg" viewBox="0 0 36.01 36" width="36.01" height="36"><defs><style>.cls-1{fill:#f0f0f0;}.cls-2{fill:#4b4a49;}.cls-3{fill:#878787;}</style></defs><title>ICON-UK-NB</title><g id="Groupe_291" data-name="Groupe 291"><circle id="Ellipse_9" data-name="Ellipse 9" class="cls-1" cx="18.01" cy="18" r="18"/><g id="Groupe_289" data-name="Groupe 289"><path id="Tracé_1164" data-name="Tracé 1164" class="cls-2" d="M4.5,7.68a17.74,17.74,0,0,0-3.1,6.26h9.37Z" transform="translate(-0.77 -0.64)"/><path id="Tracé_1165" data-name="Tracé 1165" class="cls-2" d="M36.16,13.94a17.74,17.74,0,0,0-3.1-6.26L26.8,13.94Z" transform="translate(-0.77 -0.64)"/><path id="Tracé_1166" data-name="Tracé 1166" class="cls-2" d="M1.4,23.33A17.87,17.87,0,0,0,4.5,29.6l6.26-6.27Z" transform="translate(-0.77 -0.64)"/><path id="Tracé_1167" data-name="Tracé 1167" class="cls-2" d="M29.74,4.36a17.74,17.74,0,0,0-6.26-3.1v9.36Z" transform="translate(-0.77 -0.64)"/><path id="Tracé_1168" data-name="Tracé 1168" class="cls-2" d="M7.82,32.92A17.91,17.91,0,0,0,14.08,36V26.65Z" transform="translate(-0.77 -0.64)"/><path id="Tracé_1169" data-name="Tracé 1169" class="cls-2" d="M14.08,1.26a17.74,17.74,0,0,0-6.26,3.1l6.26,6.26Z" transform="translate(-0.77 -0.64)"/><path id="Tracé_1170" data-name="Tracé 1170" class="cls-2" d="M23.48,36a17.91,17.91,0,0,0,6.26-3.1l-6.26-6.27Z" transform="translate(-0.77 -0.64)"/><path id="Tracé_1171" data-name="Tracé 1171" class="cls-2" d="M26.8,23.33l6.26,6.27a17.87,17.87,0,0,0,3.1-6.27Z" transform="translate(-0.77 -0.64)"/></g><g id="Groupe_290" data-name="Groupe 290"><path id="Tracé_1172" data-name="Tracé 1172" class="cls-3" d="M36.63,16.29H21.13V.79a17.61,17.61,0,0,0-4.7,0v15.5H.93a17.61,17.61,0,0,0,0,4.7h15.5v15.5a18.42,18.42,0,0,0,2.35.15,16.77,16.77,0,0,0,2.35-.16V21h15.5a18.41,18.41,0,0,0,0-4.69Z" transform="translate(-0.77 -0.64)"/><path id="Tracé_1173" data-name="Tracé 1173" class="cls-3" d="M23.48,23.33h0l8,8c.37-.37.72-.75,1.05-1.15l-6.87-6.88Z" transform="translate(-0.77 -0.64)"/><path id="Tracé_1174" data-name="Tracé 1174" class="cls-3" d="M14.08,23.33h0l-8,8c.38.38.76.73,1.16,1.06l6.87-6.88Z" transform="translate(-0.77 -0.64)"/><path id="Tracé_1175" data-name="Tracé 1175" class="cls-3" d="M14.08,13.94h0l-8-8c-.37.37-.72.75-1,1.15l6.88,6.88Z" transform="translate(-0.77 -0.64)"/><path id="Tracé_1176" data-name="Tracé 1176" class="cls-3" d="M23.48,13.94h0l8-8c-.38-.37-.75-.72-1.16-1.06l-6.87,6.88Z" transform="translate(-0.77 -0.64)"/></g></g></svg>
